<?xml version="1.0" encoding="iso-8859-1"?>
<!-- Generator: Adobe Illustrator 22.0.1, SVG Export Plug-In . SVG Version: 6.00 Build 0)  -->
<svg version="1.1" id="Layer_1" xmlns="http://www.w3.org/2000/svg" xmlns:xlink="http://www.w3.org/1999/xlink" x="0px" y="0px"
	 viewBox="0 0 193.413 35" style="enable-background:new 0 0 193.413 35;" xml:space="preserve">
<path style="fill-rule:evenodd;clip-rule:evenodd;fill:#008B38;" d="M163.612,18.444h-3.396v-6.516h3.396V18.444L163.612,18.444z
	 M165.541,10.089L165.541,10.089c-0.463-0.431-1.004-0.76-1.621-1.014c-0.656-0.253-1.313-0.406-2.007-0.406
	c-0.693,0-1.35,0.152-1.968,0.368c-0.656,0.291-1.196,0.62-1.658,1.051c-0.464,0.431-0.849,0.938-1.119,1.52
	c-0.271,0.621-0.425,1.229-0.425,1.887l0.039,21.184h3.435l-0.013-6.88c0,0,0.013,0.012,0.013-3.294v-2.813h3.396V34.68h3.435
	V13.497c0-0.659-0.154-1.267-0.387-1.85C166.353,11.027,166.005,10.52,165.541,10.089L165.541,10.089z M193.026,17.127
	L193.026,17.127c0.271-0.588,0.387-1.216,0.387-1.907V8.67h-3.397l-0.001,6.512c0,0.921-0.192,1.65-0.5,2.277
	c-0.387,0.653-0.773,0.947-1.198,0.947l-1.736,0.039V8.67h-3.435v26.01h3.435V21.693h1.736c0.426,0,0.811,0.295,1.158,0.921
	c0.348,0.614,0.541,1.382,0.541,2.304v9.762h3.397l-0.001-9.762c0-0.666-0.116-1.279-0.386-1.869
	c-0.269-0.626-0.617-1.138-1.081-1.574c-0.462-0.435-1.914-1.433-2.609-1.432c0.733,0,2.185-0.947,2.609-1.381
	C192.409,18.227,192.756,17.714,193.026,17.127L193.026,17.127z M176.721,18.444L176.721,18.444h-3.434V8.67h-3.435v26.01h3.435
	V21.693h3.434V34.68h3.397V8.67h-3.397V18.444L176.721,18.444z M150.89,31.43L150.89,31.43h-3.435v-9.737h3.435V31.43L150.89,31.43z
	 M150.89,18.406L150.89,18.406h-3.435v-6.474h6.363V8.67h-4.665c-0.732,0-1.39,0.153-2.007,0.371
	c-0.617,0.295-1.156,0.626-1.62,1.061c-0.463,0.474-0.811,0.985-1.081,1.574c-0.271,0.615-0.386,1.241-0.386,1.932V34.68h5.093
	c0.733,0,1.39-0.103,2.007-0.333c0.656-0.256,1.197-0.537,1.659-0.946c0.464-0.397,0.849-0.909,1.082-1.459
	c0.269-0.588,0.423-1.254,0.423-1.945v-8.304c0-0.908-0.347-1.714-0.965-2.341C152.704,18.738,151.854,18.406,150.89,18.406
	L150.89,18.406z M100.992,27.671L100.992,27.671c-0.97,1.092-1.517,2.062-1.768,2.919V8.67c-1.614,0.48-22.341,9.614-22.443,9.774
	c2.999-0.037,4.301,6.55,0.825,8.575c-1.258,0.713-5.492,1.033-5.493-3.787L72.114,8.67l-8.835,3.257l-0.012,10.099
	c-0.122,3.062,0.835,12.924,12.848,12.924c4.535,0,11.993-1.881,11.999-11.965l0.007-4.244c-0.004-0.172,0.336-0.787,1.049-0.787
	c0.748,0,1.196,0.393,1.196,1.661c0,0,0,10.046,0.041,15.064h8.816v-2.036c0.569,1.54,2.437,2.349,4.201,2.355
	c4.011,0,5.809-2.164,5.723-4.55c0,0-1.122-1.87-0.116-3.112c2.984-3.689,5.991-7.342,6.054-7.255
	c1.272,1.869,7.724,11.535,9.703,14.597l10.6-0.006c-4.114-6.113-9.582-14.517-17.377-26.005
	C118.013,8.67,102.118,26.416,100.992,27.671L100.992,27.671z M51.911,23.169L51.911,23.169c0,2.067-1.964,3.85-5.662,3.85
	c-4.687,0-6.093-2.816-5.925-8.166L40.358,8.67l-9.055,3.321v10.085c-0.008,6.739,4.519,12.494,14.946,12.531
	c3.187,0,5.078-1.599,5.662-2.349c-0.005,0.799,0,1.438,0,2.423h9.246L61.16,8.67l-9.249,3.257V23.169L51.911,23.169z M12.232,25.15
	L12.232,25.15c2.269-2.792,4.068-4.797,4.118-4.723c0.506,0.738,1.399,2.361,2.927,4.649L12.232,25.15L12.232,25.15z M1.832,27.671
	c1.164-1.229,17.021-19,17.021-19c7.795,11.487,13.257,19.897,17.371,26.01h-10.59c-0.622-0.959-1.381-2.103-2.581-3.91H9.969
	C9.886,33.025,8.095,35,4.266,35C1.111,34.988-2.132,31.876,1.832,27.671L1.832,27.671L1.832,27.671z M50.799,7.95
	c-3.326,1.317-6.348,0.779-6.75-1.215C43.647,4.73,46.017,2.05,49.343,0.72c3.326-1.318,6.347-0.779,6.749,1.226
	C56.495,3.94,54.124,6.632,50.799,7.95L50.799,7.95z"/>
</svg>
